<svg width="340" height="39" viewBox="0 0 340 39" fill="none" xmlns="http://www.w3.org/2000/svg">
<path d="M57.1247 0.628259H60.2832V37.5232H57.1247V7.62513L53.0496 15.6793H49.5098L45.4348 7.62513V37.5232H42.2763V0.628259H45.4348L51.2795 12.1811L57.1247 0.628259ZM75.5722 0.628259L84.7411 37.5232H81.4864L76.5509 17.6637H71.3382L66.4027 37.5232H63.1481L72.317 0.628259H75.5722ZM72.1236 14.5055H75.7664L73.945 7.17659L72.1236 14.5055ZM100.997 0.628259H104.155V37.5232H100.997V15.6798L90.7634 5.15843V37.5232H87.6049V0.628259H90.7634L100.997 11.1497V0.628259ZM139.273 0.628259H142.432V37.5232H139.273V15.6793H129.96V31.5668H126.801V6.58469H129.96V12.5206H139.273V0.628259ZM111.161 19.0757C111.161 27.8531 118.302 34.9933 127.078 34.9933C129.514 34.9933 132.914 34.6698 135.045 33.7013V37.1457C132.855 37.9553 129.162 38.1518 126.798 38.1518C117.256 38.1518 108.002 31.3378 108.002 19.0761C108.002 5.58726 118.277 0.000306619 127.327 0.000306619C129.692 0.000306619 132.855 0.196771 135.045 1.00638V4.45079C132.914 3.48235 129.514 3.15873 127.078 3.15873C117.784 3.15873 111.161 10.2979 111.161 19.0757ZM161.795 3.78805L150.902 3.7881V12.5219H159.285V15.6804H150.902V34.3659H161.795V37.5243H147.744V0.629364H161.795V3.78805ZM166.958 7.45646C166.958 15.3541 177.82 21.1566 177.82 29.1728C177.82 36.1787 172.348 38.151 169.415 38.151C166.645 38.151 164.721 37.6617 163.556 37.1038V33.4099C164.23 33.912 166.453 34.9924 169.16 34.9924C171.868 34.9924 174.662 32.8713 174.662 29.173C174.662 22.8713 163.799 16.3393 163.799 7.45662C163.799 2.92908 167.22 0.000674813 171.507 0.000674813C172.87 0.000674813 174.284 0.298812 176.369 0.886892V4.16896C174.219 3.46032 172.674 3.15915 171.507 3.15915C170.44 3.15915 166.958 3.46912 166.958 7.45646ZM178.788 0.628259H193.472V3.78673H187.709V37.5245H184.551V3.78673H178.788V0.628259ZM210.18 3.78805L199.287 3.7881V12.5219H207.67V15.6804H199.287V34.3659H210.18V37.5243H196.129V0.629364H210.18V3.78805ZM225.74 25.8112C226.44 30.2784 227.163 34.8926 229.649 37.5232H225.75C223.87 34.2862 223.214 30.0952 222.62 26.2998C221.589 19.7172 220.751 15.6825 216.68 15.6793V37.5232H213.522V0.628259H219.111C223.081 0.628259 226.312 4.00415 226.312 8.15378C226.312 11.1357 224.644 13.7181 222.232 14.9351C222.754 15.5356 223.211 16.2464 223.602 17.0685C224.75 19.4871 225.231 22.5592 225.74 25.8112ZM219.112 12.5206C221.34 12.5206 223.154 10.5615 223.154 8.15351C223.154 5.74549 221.34 3.78647 219.112 3.78647H216.681V12.5203L219.112 12.5206ZM262.324 3.1582C253.031 3.1582 246.407 10.2979 246.407 19.0752C246.407 27.8525 253.548 34.9928 262.324 34.9928C263.246 34.9928 264.305 34.9465 265.381 34.8364V14.5049H268.539V37.5229C266.59 37.9654 263.854 38.1515 262.044 38.1515C252.502 38.1515 243.248 31.3375 243.248 19.0758C243.248 5.58695 253.523 0 262.573 0C264.361 0 266.604 0.112568 268.539 0.517084V3.85318C266.56 3.34392 264.167 3.1582 262.324 3.1582ZM287.396 3.78805L276.503 3.7881V12.5219H284.886V15.6804H276.503V34.3659H287.396V37.5243H273.345V0.629364H287.396V3.78805ZM304.13 0.628259H307.289V37.5232H304.13V15.6798L293.897 5.15843V37.5232H290.738V0.628259H293.897L304.13 11.1497V0.628259ZM309.976 0.628259H324.66V3.78673H318.897V37.5245H315.739V3.78673H309.976V0.628259ZM329.138 7.45646C329.138 15.3541 340 21.1566 340 29.1728C340 36.1787 334.527 38.151 331.594 38.151C328.825 38.151 326.901 37.6617 325.735 37.1038V33.4099C326.409 33.912 328.633 34.9924 331.34 34.9924C334.047 34.9924 336.841 32.8713 336.841 29.173C336.841 22.8713 325.979 16.3393 325.979 7.45662C325.979 2.92908 329.399 0.000674813 333.687 0.000674813C335.05 0.000674813 336.464 0.298812 338.549 0.886892V4.16896C336.399 3.46032 334.854 3.15915 333.687 3.15915C332.619 3.15915 329.138 3.46912 329.138 7.45646Z" fill="#FFD460"/>
<path d="M6.87662 2.16552C10.0039 9.17574 11.5572 20.7262 12.3 28.8566C9.18956 22.5241 4.9108 17.7833 3.11855 15.9489L7.00477 11.2379L1.86815 7.54062L6.87662 2.16552ZM7.19762 0L0 7.72381L5.20381 11.4688L1.4389 16.0331C1.4389 16.0331 11.8478 25.7454 14.1738 38.1512C14.1738 38.1512 13.2873 11.2354 7.19762 0Z" fill="#FFD460"/>
<path d="M25.0897 2.16552L30.0981 7.54124L24.9615 11.2379L28.8471 15.9489C27.0555 17.7833 22.7767 22.5247 19.6662 28.8566C20.4084 20.7268 21.9612 9.17513 25.0897 2.16552ZM24.768 0C18.6784 11.2348 17.7925 38.1518 17.7925 38.1518C20.1179 25.746 30.5268 16.0337 30.5268 16.0337L26.7618 11.4694L31.965 7.72443L24.768 0Z" fill="#FFD460"/>
<path d="M12.0027 2.38088L13.1778 2.93541L12.0369 3.32222C12.0251 3.01958 12.0139 2.69837 12.0027 2.38088ZM10.7106 0.401652C10.7106 1.55837 10.8599 5.02789 10.8599 5.02789L16.4824 3.12294L10.7106 0.401652Z" fill="#FFD460"/>
<path d="M19.963 2.38087C19.9518 2.69836 19.9406 3.01895 19.9288 3.32159L18.7885 2.93478L19.963 2.38087ZM21.2557 0.401639L15.4852 3.12292L21.1064 5.02788C21.1064 5.02788 21.2557 1.55835 21.2557 0.401639Z" fill="#FFD460"/>
<path fill-rule="evenodd" clip-rule="evenodd" d="M26.6417 6.58805L26.6608 6.63951C26.6735 6.67394 26.6808 6.70827 26.6826 6.74254V6.76423L26.9469 6.88905C27.085 6.96307 27.2041 7.02283 27.304 7.06794C27.4039 7.11138 27.4902 7.14207 27.5629 7.16018C27.6701 7.19087 27.78 7.19532 27.8927 7.17374C27.9472 7.16463 28.008 7.14663 28.0753 7.11951C28.1407 7.09061 28.2024 7.05715 28.2606 7.01909C28.4096 6.92154 28.5213 6.81129 28.5958 6.68831C28.6485 6.60339 28.6721 6.52661 28.6666 6.45785C28.663 6.37651 28.6212 6.31052 28.5412 6.25993C28.4722 6.2166 28.3777 6.18412 28.2578 6.16238L28.0916 6.13792C28.088 6.13792 28.0289 6.1325 27.9144 6.12171C27.7255 6.11081 27.4675 6.11992 27.1404 6.14882C26.9515 6.16872 26.8071 6.18407 26.7072 6.19491C26.5291 6.21302 26.3746 6.2256 26.2439 6.23282C26.1748 6.2365 26.1012 6.2346 26.0231 6.22739C25.9995 6.22381 25.9777 6.22018 25.9577 6.2166C25.945 6.2256 25.9341 6.23103 25.925 6.23282C25.9214 6.23282 25.9186 6.23379 25.9168 6.23558C25.9168 6.26269 25.9204 6.28623 25.9277 6.30613C25.9441 6.34767 25.9786 6.38112 26.0313 6.40645L26.113 6.43356C26.1385 6.43898 26.1657 6.44169 26.1948 6.44169C26.2093 6.44169 26.2402 6.4399 26.2874 6.43616C26.331 6.43074 26.3665 6.42895 26.3937 6.43074C26.4409 6.43432 26.48 6.44343 26.5109 6.45785L26.5681 6.49039C26.579 6.4995 26.5935 6.51484 26.6117 6.53659L26.6417 6.58805ZM27.7264 5.68253C27.6592 5.677 27.5838 5.65987 27.5002 5.63097C27.3749 5.58395 27.2731 5.5506 27.195 5.53065C27.1205 5.51807 27.0597 5.51433 27.0124 5.51986L26.9688 5.53065L26.9279 5.54963C26.897 5.57132 26.8698 5.59387 26.8461 5.61741C26.7934 5.67163 26.7416 5.74218 26.6907 5.82889C26.6163 5.93913 26.5626 6.01591 26.53 6.05935C26.6971 6.04482 26.8961 6.02502 27.1268 5.9997C27.4412 5.9708 27.7082 5.96348 27.928 5.97801C28.0316 5.98701 28.0924 5.99336 28.1107 5.99699L28.2905 6.0241C28.434 6.05121 28.5458 6.09286 28.6257 6.14887C28.6766 6.18141 28.7193 6.22566 28.7538 6.28167C28.7847 6.33232 28.8001 6.3911 28.8001 6.45791C28.8001 6.55736 28.7684 6.65767 28.7048 6.75891C28.6158 6.89806 28.4867 7.01914 28.3178 7.12217C28.1815 7.2053 28.0434 7.25773 27.9035 7.27942C27.8308 7.28843 27.7645 7.29022 27.7046 7.28485L27.5329 7.24694C27.4493 7.21983 27.3603 7.18274 27.2659 7.13573C27.1677 7.08329 27.0524 7.01469 26.9197 6.92972L26.6826 6.76705V6.77247C26.6808 6.81401 26.6726 6.86736 26.6581 6.93238C26.6417 6.99929 26.6353 7.04718 26.639 7.07608C26.6408 7.11219 26.6571 7.14565 26.688 7.1764L26.737 7.21706C26.7443 7.22064 26.7616 7.22883 26.7888 7.24152C26.8233 7.25231 26.866 7.25687 26.9169 7.25508C26.9333 7.25508 26.9796 7.25139 27.0559 7.24418C27.1813 7.23339 27.2776 7.23518 27.3448 7.2496C27.4265 7.27313 27.5056 7.31294 27.5819 7.36895C27.6255 7.39964 27.6837 7.45029 27.7564 7.52073C27.8636 7.63287 27.9398 7.74398 27.9852 7.85422C28.0252 7.93913 28.0634 8.03679 28.0997 8.14703C28.1343 8.25549 28.1561 8.3378 28.1652 8.39382C28.167 8.41914 28.1706 8.45428 28.176 8.4995L28.1652 8.59163C28.1434 8.70919 28.1315 8.78142 28.1297 8.80853V8.83299H28.1079C28.0789 8.83478 28.0044 8.84655 27.8845 8.86824L27.7918 8.87626C27.7718 8.87626 27.7364 8.87268 27.6855 8.86547C27.6255 8.85647 27.5429 8.83478 27.4375 8.80045C27.3194 8.76244 27.2204 8.72356 27.1404 8.68387C27.026 8.63507 26.9143 8.55909 26.8053 8.45607C26.7235 8.36394 26.6735 8.30516 26.6554 8.27983C26.5991 8.20218 26.56 8.12269 26.5382 8.04135C26.5255 7.97622 26.5246 7.88133 26.5355 7.75666C26.5464 7.62831 26.5446 7.54063 26.53 7.49356C26.5191 7.46824 26.51 7.4511 26.5028 7.4421L26.4619 7.39064C26.431 7.36353 26.3974 7.349 26.361 7.34721C26.3302 7.34542 26.2811 7.35263 26.2138 7.3689L26.1103 7.38511L26.2411 7.57767C26.3265 7.70965 26.3956 7.82526 26.4483 7.92471C26.4973 8.02047 26.5336 8.10994 26.5573 8.19307C26.6009 8.30695 26.6118 8.42895 26.59 8.55909C26.5754 8.63143 26.5564 8.69921 26.5328 8.76244C26.5019 8.84199 26.4674 8.91156 26.4292 8.97121C26.3293 9.13568 26.2067 9.26322 26.0613 9.35355C25.9596 9.41678 25.8587 9.44747 25.7588 9.44568C25.6897 9.44389 25.6307 9.42768 25.5816 9.39699C25.5289 9.36256 25.4853 9.31923 25.4508 9.26685C25.3927 9.18009 25.3518 9.06892 25.3282 8.93336L25.2982 8.75436C25.2964 8.73094 25.291 8.67037 25.2819 8.57271C25.2692 8.37749 25.2764 8.11276 25.3037 7.7783C25.3291 7.54882 25.3491 7.35263 25.3636 7.18995C25.32 7.22064 25.2428 7.27308 25.132 7.34721C25.0375 7.40322 24.9666 7.45468 24.9194 7.50175C24.8903 7.53065 24.8677 7.55874 24.8513 7.58585L24.8322 7.62652L24.8212 7.66979C24.814 7.72223 24.8185 7.78193 24.8349 7.84879C24.844 7.88491 24.8775 7.98615 24.9357 8.15246C24.9648 8.25012 24.9821 8.32603 24.9875 8.38026L24.9902 8.42635L24.9793 8.52938L24.9657 8.57547L24.9494 8.60524C24.9385 8.62514 24.9312 8.63512 24.9276 8.63512C24.9258 8.63154 24.9258 8.6188 24.9276 8.59722L24.9302 8.52385C24.9302 8.50042 24.9284 8.48052 24.9248 8.4642L24.9112 8.391C24.8985 8.33856 24.873 8.27078 24.8349 8.18765C24.764 8.02676 24.7213 7.92465 24.7068 7.88127C24.685 7.79272 24.6768 7.71502 24.6822 7.64816L24.6986 7.58038L24.7286 7.51259C24.7522 7.47095 24.7813 7.43305 24.8158 7.39861C24.8667 7.34807 24.9439 7.28837 25.0475 7.21972C25.1819 7.13296 25.2664 7.07505 25.3009 7.04615C25.3173 7.02993 25.3372 7.01724 25.3609 7.00824C25.3663 7.00645 25.3727 7.00466 25.38 7.00282C25.3818 6.96481 25.3836 6.92869 25.3855 6.89437C25.3891 6.83656 25.3927 6.78857 25.3963 6.75067C25.3691 6.77057 25.3355 6.80213 25.2955 6.84556C25.27 6.87447 25.2328 6.91877 25.1837 6.97836C25.0838 7.09235 24.9939 7.16729 24.9139 7.2034C24.8558 7.22872 24.794 7.23507 24.7286 7.22238L24.6469 7.19261L24.5841 7.15199C24.5187 7.10319 24.4651 7.02999 24.4233 6.93233L24.3307 6.70463L24.3198 6.68565L24.2653 6.61234C24.2163 6.54369 24.1626 6.47857 24.1045 6.41713L23.8946 6.22479L23.9737 6.24637L24.02 6.27083C24.0382 6.27804 24.0591 6.29073 24.0827 6.30873C24.1008 6.31784 24.1263 6.33584 24.159 6.36296C24.2352 6.42808 24.2988 6.48952 24.3497 6.54732L24.4043 6.61234L24.4124 6.62047L24.456 6.69639C24.476 6.73608 24.505 6.79763 24.5432 6.88076C24.5777 6.95667 24.6177 7.00911 24.6632 7.03801C24.6959 7.06144 24.7276 7.07592 24.7585 7.08134C24.7894 7.08676 24.8221 7.08231 24.8567 7.06778C24.9076 7.04609 24.9775 6.98286 25.0665 6.87799L25.1837 6.74243C25.2 6.72442 25.2155 6.7081 25.23 6.69362L25.2083 6.69916C25.1101 6.72806 25.0283 6.7434 24.963 6.74525C24.9321 6.74525 24.9085 6.74346 24.8921 6.73983L24.8212 6.72085C24.7722 6.70642 24.7295 6.68294 24.6931 6.65041C24.6223 6.59076 24.5786 6.50573 24.5623 6.39549C24.5424 6.26904 24.5533 6.1036 24.5951 5.89944C24.5914 5.89765 24.5878 5.89575 24.5842 5.89391C24.5133 5.86137 24.4397 5.82347 24.3634 5.78003C24.2907 5.73492 24.239 5.70412 24.208 5.6879L24.0173 5.59024C23.981 5.57582 23.9546 5.56226 23.9382 5.54957L23.9246 5.53336L23.941 5.52523C23.961 5.51801 23.9927 5.51433 24.0364 5.51433L24.1318 5.53065C24.1681 5.53786 24.2126 5.55142 24.2653 5.57132C24.3307 5.59664 24.4542 5.65623 24.636 5.75032L24.6687 5.63097C24.705 5.53162 24.7359 5.48282 24.7613 5.48461H24.7667L24.764 5.47919C24.7622 5.4575 24.8122 5.42675 24.9139 5.38695C24.9629 5.37074 25.002 5.35897 25.0311 5.3517C24.9366 5.1746 24.8775 5.05259 24.8539 4.98568C24.843 4.95857 24.8285 4.91432 24.8103 4.85288C24.8067 4.83298 24.8021 4.80142 24.7966 4.75799C24.7966 4.71455 24.8003 4.68386 24.8075 4.66586L24.8158 4.64948L24.8294 4.66304C24.8421 4.67936 24.8557 4.7055 24.8703 4.74161C24.8794 4.7543 24.893 4.77962 24.9112 4.81753L24.9711 4.9314C24.9766 4.94409 25.0065 4.9956 25.0611 5.08605C25.1065 5.1637 25.1446 5.23604 25.1755 5.30295C25.1792 5.30653 25.181 5.31017 25.181 5.31375C25.3935 5.27405 25.5608 5.2631 25.6824 5.28121C25.7951 5.30111 25.8814 5.34541 25.9413 5.41401C25.9759 5.45744 25.9986 5.50077 26.0095 5.54415L26.0286 5.61193C26.0322 5.64626 26.0331 5.67071 26.0313 5.68514C26.0295 5.75026 26.015 5.8316 25.9877 5.92915L25.9822 5.95084C25.9949 5.93452 26.0113 5.91739 26.0313 5.89938L26.1675 5.7854C26.2693 5.70048 26.332 5.63004 26.3556 5.57403C26.3701 5.54513 26.3746 5.51248 26.3692 5.47637C26.3619 5.44025 26.3474 5.40956 26.3256 5.38424C26.2965 5.33901 26.2429 5.29835 26.1648 5.26223C26.0812 5.22422 26.0204 5.19532 25.9821 5.17536L25.9168 5.14022L25.8323 5.06973C25.7614 5.00829 25.6997 4.94496 25.647 4.87994C25.6198 4.8474 25.6016 4.82214 25.5925 4.80402L25.5299 4.69557L25.5108 4.61966L25.5407 4.64948C25.568 4.68917 25.6225 4.74893 25.7042 4.82848C25.7569 4.87902 25.8223 4.93238 25.9004 4.98839L25.9741 5.04262L25.9768 5.04538L26.0313 5.06973C26.1331 5.10763 26.1975 5.13296 26.2248 5.14565C26.3193 5.18718 26.392 5.24054 26.4428 5.30556C26.4774 5.35257 26.5001 5.40143 26.511 5.45202C26.5255 5.51167 26.5191 5.57224 26.4919 5.63368C26.4682 5.68432 26.4346 5.73302 26.391 5.78003C26.3674 5.80714 26.3256 5.84781 26.2656 5.90204L26.1349 6.01049C26.1021 6.03939 26.074 6.06829 26.0503 6.09725C26.0903 6.09183 26.1521 6.08646 26.2356 6.08104C26.2702 6.07925 26.3065 6.07746 26.3447 6.07562C26.3465 6.06829 26.3483 6.06206 26.3501 6.05653C26.3538 6.04932 26.3656 6.02941 26.3855 5.99688C26.4201 5.95534 26.4791 5.87129 26.5627 5.74473C26.6317 5.63997 26.6917 5.56226 26.7426 5.51161C26.7807 5.47729 26.8189 5.44828 26.8571 5.42485L26.9252 5.39498L26.9933 5.38142C27.0533 5.37421 27.1323 5.38239 27.2304 5.40577C27.274 5.4203 27.3767 5.46276 27.5384 5.5333C27.6165 5.56942 27.6846 5.59474 27.7428 5.60911L27.8463 5.6282H27.9172L27.9472 5.62543C27.9689 5.62364 27.9817 5.62364 27.9853 5.62543C27.9853 5.62901 27.9744 5.63622 27.9526 5.64712L27.9226 5.66334L27.879 5.67689C27.8608 5.68243 27.839 5.68503 27.8136 5.68503L27.7727 5.6879L27.7264 5.68253ZM26.3828 6.57449C26.3665 6.57449 26.3374 6.57628 26.2956 6.57991C26.2519 6.58349 26.2174 6.58534 26.192 6.58534C26.1593 6.58713 26.1203 6.58355 26.0749 6.57455C26.0168 6.55643 25.9813 6.54385 25.9686 6.53664C25.9341 6.52395 25.8986 6.50139 25.8623 6.46886C25.826 6.43443 25.8005 6.39555 25.786 6.35227C25.7624 6.28352 25.7615 6.19957 25.7833 6.10013C25.7924 6.05669 25.8124 5.98446 25.8433 5.88322C25.8687 5.79288 25.8814 5.7251 25.8814 5.67988L25.8787 5.63644L25.8678 5.59035C25.8587 5.56324 25.8433 5.53791 25.8215 5.51443C25.7869 5.46932 25.7306 5.44123 25.6524 5.43044C25.5434 5.41412 25.3845 5.42767 25.1755 5.47111C25.1029 5.48732 25.0247 5.50088 24.9411 5.51178C24.8667 5.52078 24.814 5.5172 24.7831 5.50088C24.7977 5.52978 24.8004 5.58319 24.7912 5.6609C24.7894 5.68622 24.7767 5.76393 24.7531 5.89401C24.7059 6.09834 24.6923 6.25646 24.7122 6.36849C24.7231 6.44625 24.7513 6.50226 24.7967 6.5367C24.8458 6.58002 24.9012 6.59992 24.963 6.59634C25.012 6.59634 25.0811 6.58279 25.1701 6.55567C25.2173 6.54299 25.29 6.52314 25.3881 6.49603C25.4916 6.47792 25.5762 6.4797 25.6415 6.50145C25.6888 6.51766 25.7279 6.54391 25.7587 6.58002C25.7842 6.60713 25.8069 6.64238 25.8269 6.68582L25.8623 6.7915C25.8695 6.82762 25.8731 6.8665 25.8731 6.90809C25.8713 6.95689 25.8677 7.02012 25.8623 7.09788C25.8623 7.14668 25.8777 7.18279 25.9086 7.20633C25.945 7.23344 25.9876 7.24879 26.0367 7.25242C26.0658 7.25421 26.1175 7.24786 26.1921 7.23344C26.2721 7.21712 26.3338 7.21077 26.3774 7.21446C26.4465 7.21988 26.5073 7.25058 26.56 7.30659C26.5764 7.32112 26.5954 7.34449 26.6172 7.37714C26.6354 7.40425 26.6481 7.43223 26.6554 7.46113C26.67 7.51178 26.6753 7.5678 26.6718 7.62923C26.67 7.66367 26.6654 7.71236 26.6581 7.7757C26.6454 7.88415 26.6445 7.96635 26.6554 8.02237C26.67 8.07838 26.6945 8.13451 26.729 8.19058V8.19323C26.7326 8.18602 26.7372 8.17881 26.7426 8.17154C27.0569 7.86235 27.2885 7.65082 27.4375 7.537L27.5411 7.47735L27.5329 7.47192C27.462 7.41591 27.3876 7.37969 27.3094 7.36347C27.2604 7.35436 27.1777 7.35615 27.0614 7.3689L26.9142 7.37969C26.8416 7.37969 26.7852 7.37427 26.7452 7.36347C26.7089 7.34894 26.6807 7.33539 26.6607 7.3228L26.5899 7.26581C26.5354 7.21338 26.5063 7.15194 26.5027 7.08145C26.499 7.04533 26.5063 6.98389 26.5244 6.89708C26.5371 6.83206 26.5426 6.78142 26.5408 6.7453C26.5372 6.69466 26.5217 6.6522 26.4944 6.61787C26.471 6.58897 26.4337 6.57449 26.3828 6.57449ZM26.4973 8.3667L26.4673 8.20945C26.4455 8.1209 26.4146 8.035 26.3746 7.95188C26.351 7.89944 26.292 7.78199 26.1975 7.59941L26.0967 7.38793H26.0231C26.0158 7.38793 25.9813 7.38159 25.9196 7.36895L25.8678 7.34726L25.8187 7.31738C25.7806 7.28669 25.7543 7.25237 25.7398 7.21446C25.7325 7.18735 25.7271 7.16745 25.7233 7.15471L25.7179 7.09782C25.7234 7.00559 25.7261 6.94057 25.7261 6.90261C25.7261 6.8755 25.7233 6.84838 25.7179 6.82127L25.6906 6.73993C25.6652 6.68929 25.6316 6.65583 25.5898 6.63951C25.5716 6.63408 25.5499 6.63148 25.5244 6.63148C25.528 6.6477 25.5307 6.66662 25.5325 6.68836C25.5416 6.78239 25.5434 6.85381 25.538 6.90261C25.5271 7.11772 25.4999 7.41596 25.4563 7.79733C25.4254 8.11537 25.4163 8.37294 25.429 8.57005C25.4326 8.6477 25.4371 8.70648 25.4426 8.74628L25.4699 8.90896C25.4916 9.02999 25.5253 9.12489 25.5707 9.19364C25.6216 9.27319 25.6879 9.31289 25.7697 9.31289C25.8405 9.31468 25.9168 9.29033 25.9986 9.23968C26.1222 9.16555 26.2339 9.05347 26.3338 8.90343C26.4083 8.78598 26.4591 8.6631 26.4864 8.53475C26.4955 8.46783 26.4991 8.41182 26.4973 8.3667ZM27.5601 7.4909L27.5547 7.48814L27.492 7.59122C27.3775 7.74132 27.2277 7.91023 27.0423 8.09823C26.9243 8.21758 26.8498 8.289 26.8189 8.31248L26.887 8.38568C26.9688 8.46881 27.0578 8.53746 27.154 8.59168C27.1758 8.56278 27.234 8.50232 27.3284 8.41003C27.4938 8.24735 27.6409 8.1209 27.77 8.03045L27.8845 7.9708L27.8245 8.08467C27.7318 8.21303 27.5565 8.40558 27.2985 8.66218C27.3385 8.68029 27.3957 8.70382 27.4702 8.73273C27.5465 8.76342 27.6237 8.78782 27.7019 8.80593C27.7236 8.80951 27.7554 8.81493 27.7972 8.82214L27.8817 8.81949C27.9852 8.80859 28.0598 8.80414 28.1052 8.80593C28.1016 8.76429 28.1052 8.69027 28.1161 8.5836L28.1188 8.49674L28.1025 8.39918C28.0879 8.32864 28.0634 8.25185 28.0289 8.16873C27.978 8.04574 27.9353 7.95269 27.9007 7.88946C27.8499 7.78643 27.7754 7.68709 27.6773 7.59122C27.6265 7.54421 27.5874 7.51081 27.5601 7.4909Z" fill="#FFD460"/>
</svg>
